<svg width="14" height="13" viewBox="0 0 14 13" fill="none" xmlns="http://www.w3.org/2000/svg">
<path fill-rule="evenodd" clip-rule="evenodd" d="M6.15191 6.50001L1.00044 1.34854C0.766121 1.11422 0.766121 0.734323 1.00044 0.500009C1.23475 0.265694 1.61465 0.265694 1.84896 0.500009L7.00044 5.65148L12.1519 0.500009C12.3862 0.265694 12.7661 0.265694 13.0004 0.500008C13.2347 0.734323 13.2348 1.11422 13.0004 1.34854L7.84896 6.50001L13.0004 11.6515C13.2347 11.8858 13.2347 12.2657 13.0004 12.5C12.7661 12.7343 12.3862 12.7343 12.1519 12.5L7.00044 7.34854L1.84896 12.5C1.61465 12.7343 1.23475 12.7343 1.00044 12.5C0.766121 12.2657 0.766121 11.8858 1.00044 11.6515L6.15191 6.50001Z" fill="#828282"/>
</svg>
