<svg width="20" height="23" viewBox="0 0 20 23" fill="none" xmlns="http://www.w3.org/2000/svg">
<path fill-rule="evenodd" clip-rule="evenodd" d="M17.2004 8.4V20.4C17.2004 21.7255 16.1259 22.8 14.8004 22.8H5.20039C3.87491 22.8 2.80039 21.7255 2.80039 20.4V8.4L0.400391 8.4V3.6H5.80039L6.93705 1.32669C7.34359 0.513606 8.17462 0 9.08367 0H10.9171C11.8262 0 12.6572 0.513605 13.0637 1.32669L14.2004 3.6H19.6004V8.4L17.2004 8.4ZM18.4004 4.8V7.2L1.60039 7.2V4.8H6.54203L8.01036 1.86334C8.21363 1.4568 8.62915 1.2 9.08367 1.2H10.9171C11.3716 1.2 11.7872 1.4568 11.9904 1.86334L13.4587 4.8H18.4004ZM4.00039 20.4C4.00039 21.0627 4.53765 21.6 5.20039 21.6H14.8004C15.4631 21.6 16.0004 21.0627 16.0004 20.4V8.4H4.00039V20.4Z" fill="#D73E29"/>
</svg>
