<svg width="16" height="18" viewBox="0 0 16 18" fill="none" xmlns="http://www.w3.org/2000/svg">
<path fill-rule="evenodd" clip-rule="evenodd" d="M13.3998 6.8V15.8C13.3998 16.7941 12.5939 17.6 11.5998 17.6H4.3998C3.40569 17.6 2.5998 16.7941 2.5998 15.8V6.8L0.799805 6.8V3.2H4.8498L5.7023 1.49502C6.0072 0.885205 6.63048 0.5 7.31226 0.5H8.68734C9.36913 0.5 9.99241 0.885204 10.2973 1.49501L11.1498 3.2H15.1998V6.8L13.3998 6.8ZM14.2998 4.1V5.9L1.6998 5.9V4.1H5.40603L6.50728 1.89751C6.65973 1.5926 6.97137 1.4 7.31226 1.4H8.68734C9.02824 1.4 9.33988 1.5926 9.49233 1.89751L10.5936 4.1H14.2998ZM3.4998 15.8C3.4998 16.2971 3.90275 16.7 4.3998 16.7H11.5998C12.0969 16.7 12.4998 16.2971 12.4998 15.8V6.8H3.4998V15.8Z" fill="#D73E29"/>
</svg>
