<svg width="20" height="24" viewBox="0 0 20 24" fill="none" xmlns="http://www.w3.org/2000/svg">
<path fill-rule="evenodd" clip-rule="evenodd" d="M0 5.6V18.6C0 20.0359 0.895431 21.2 2 21.2H18C19.1046 21.2 20 20.0359 20 18.6V5.6C20 4.16406 19.1046 3 18 3H2C0.895431 3 0 4.16406 0 5.6ZM19 5.62198V5.6C19 4.88203 18.5523 4.3 18 4.3H2C1.44772 4.3 1 4.88203 1 5.6V5.62198L9.22826 12.04C9.70328 12.4105 10.2967 12.4105 10.7717 12.04L19 5.62198ZM1 7.13802V18.6C1 19.318 1.44772 19.9 2 19.9H18C18.5523 19.9 19 19.318 19 18.6V7.13802L11.2862 13.1548C10.4945 13.7723 9.50547 13.7723 8.71376 13.1548L1 7.13802Z" fill="#BDBDBD"/>
</svg>
