<svg width="20" height="24" viewBox="0 0 20 24" fill="none" xmlns="http://www.w3.org/2000/svg">
<path d="M11.3807 10.1886C11.1963 10.0427 10.9856 9.94546 10.7485 9.87251C10.5114 9.82388 10.248 9.79956 9.93191 9.79956H8.72016C8.50942 9.79956 8.37771 9.84819 8.27234 9.92114C8.19331 9.99409 8.14062 10.14 8.14062 10.3345V13.4713C8.14062 13.6172 8.14063 13.7145 8.19331 13.8117C8.21965 13.909 8.27234 13.9576 8.35136 14.0063C8.43039 14.0549 8.5621 14.0792 8.7465 14.0792H9.95825C10.169 14.0792 10.3534 14.0549 10.5378 14.0306C10.6958 14.0063 10.8539 13.9576 11.012 13.909C11.17 13.836 11.3017 13.7631 11.4071 13.6658C11.5651 13.5199 11.6969 13.374 11.8022 13.2038C11.9076 13.0336 11.9866 12.8391 12.0393 12.6202C12.092 12.4014 12.1183 12.1825 12.1183 11.9151C12.1183 11.1613 11.8813 10.5777 11.3807 10.1886ZM10.6958 13.2038C10.6168 13.2525 10.5378 13.3011 10.4588 13.3254C10.3534 13.3497 10.2744 13.374 10.1953 13.374C10.1163 13.374 9.9846 13.374 9.82654 13.374H9.1153V10.4561H9.74752C10.0373 10.4561 10.2744 10.4804 10.4851 10.5534C10.6958 10.602 10.8539 10.7479 10.9856 10.9667C11.1173 11.1856 11.1964 11.5017 11.1964 11.9151C11.17 12.5473 11.012 12.9607 10.6958 13.2038Z" fill="#BDBDBD"/>
<path d="M19.7599 4.79027L19.7336 4.76596V4.74164L14.7285 0.121581L14.7022 0.0972644C14.7022 0.0972644 14.6758 0.0972644 14.6758 0.0729483C14.6758 0.0729483 14.6495 0.0729483 14.6495 0.0486322C14.5705 0 14.4915 0 14.3861 0H1.97879C1.50462 0 1.0568 0.170213 0.740691 0.462006L0.714349 0.486322C0.39824 0.778116 0.1875 1.21581 0.1875 1.6535V22.3465C0.1875 22.8085 0.39824 23.2219 0.714349 23.5137C1.03046 23.8055 1.50462 24 1.97879 24H18.0213C18.5218 24 18.9697 23.8055 19.2858 23.5137C19.6019 23.2219 19.8126 22.7842 19.8126 22.3465V5.03343C19.8126 4.93617 19.7863 4.86322 19.7599 4.79027ZM14.8866 1.75076L17.8633 4.49848H15.6769C15.4661 4.49848 15.2554 4.42553 15.1237 4.27964C14.992 4.15805 14.8866 3.96353 14.8866 3.769V1.75076ZM18.6799 22.3465C18.6799 22.5167 18.6009 22.6626 18.4692 22.7842C18.3375 22.9058 18.1794 22.9787 17.995 22.9787H1.97879C1.79439 22.9787 1.63634 22.9058 1.50462 22.8085C1.37291 22.6869 1.32023 22.541 1.32023 22.3708V1.62918C1.32023 1.45897 1.39925 1.31307 1.53097 1.19149L1.55731 1.16717C1.68902 1.06991 1.84707 0.99696 2.00513 0.99696H13.8065V3.74468C13.8065 4.231 14.0173 4.66869 14.3861 5.00912C14.7285 5.32523 15.229 5.51976 15.7559 5.51976H18.6799V22.3465Z" fill="#BDBDBD"/>
<path d="M6.93165 10.1401C6.79993 10.0186 6.64188 9.94562 6.43114 9.89698C6.24674 9.84835 5.95698 9.82404 5.61453 9.82404H4.40278C4.19204 9.82404 4.03398 9.87267 3.95495 9.94562C3.84958 10.0186 3.82324 10.1645 3.82324 10.359V13.666C3.82324 13.8362 3.87593 13.9578 3.95495 14.055C4.03398 14.1523 4.16569 14.1766 4.29741 14.1766C4.42912 14.1766 4.53449 14.128 4.63986 14.0307C4.71888 13.9334 4.77157 13.8119 4.77157 13.6417V12.4258H5.64087C6.2204 12.4258 6.64188 12.3043 6.93165 12.0854C7.22141 11.8666 7.37947 11.5262 7.37947 11.0885C7.37947 10.8939 7.35312 10.6994 7.2741 10.5292C7.16873 10.3833 7.06336 10.2374 6.93165 10.1401ZM6.29943 11.5018C6.2204 11.5991 6.11503 11.6721 5.95698 11.7207C5.79892 11.7693 5.61453 11.7936 5.40379 11.7936H4.77157V10.4806H5.40379C5.82526 10.4806 6.08869 10.5535 6.24674 10.6751C6.37845 10.7967 6.43114 10.9426 6.43114 11.1371C6.4048 11.283 6.37845 11.4046 6.29943 11.5018Z" fill="#BDBDBD"/>
<path d="M13.517 9.77527C13.359 9.79958 13.2536 9.8239 13.1746 9.87253C13.0956 9.89685 13.0165 9.9698 12.9902 10.0427C12.9375 10.1157 12.9375 10.213 12.9375 10.3589V13.6415C12.9375 13.8117 12.9902 13.9576 13.0692 14.0306C13.1482 14.1279 13.28 14.1522 13.4117 14.1522C13.5434 14.1522 13.6487 14.1035 13.7541 14.0306C13.8331 13.9333 13.8858 13.8117 13.8858 13.6415V12.2312H15.44C15.5717 12.2312 15.6771 12.2069 15.7561 12.1339C15.8352 12.0853 15.8615 11.988 15.8615 11.8908C15.8615 11.7935 15.8352 11.7206 15.7561 11.6476C15.6771 11.599 15.5717 11.5503 15.44 11.5503H13.8858V10.4561H15.7298C15.8879 10.4561 15.9932 10.4318 16.0722 10.3589C16.1513 10.2859 16.1776 10.213 16.1776 10.1157C16.1776 10.0184 16.1513 9.94548 16.0722 9.87253C15.9932 9.79958 15.8879 9.77527 15.7298 9.77527H13.517Z" fill="#BDBDBD"/>
</svg>
