<svg width="19" height="24" viewBox="0 0 19 24" fill="none" xmlns="http://www.w3.org/2000/svg">
<path d="M18.2397 4.79027L18.2154 4.76596V4.74164L13.5953 0.121581L13.571 0.0972644C13.571 0.0972644 13.5467 0.0972644 13.5467 0.0729483C13.5467 0.0729483 13.5224 0.0729483 13.5224 0.0486322C13.4494 0 13.3765 0 13.2792 0H1.82635C1.38866 0 0.975283 0.170213 0.68349 0.462006L0.659174 0.486322C0.36738 0.778116 0.172852 1.21581 0.172852 1.6535V22.3465C0.172852 22.8085 0.36738 23.2219 0.659174 23.5137C0.950967 23.8055 1.38866 24 1.82635 24H16.6349C17.0969 24 17.5102 23.8055 17.802 23.5137C18.0938 23.2219 18.2884 22.7842 18.2884 22.3465V5.03343C18.2884 4.93617 18.264 4.86322 18.2397 4.79027ZM13.7412 1.75076L15.1273 3.13678L16.489 4.49848H14.4707C14.2762 4.49848 14.0817 4.42553 13.9601 4.27964C13.8385 4.15805 13.7412 3.96353 13.7412 3.769V1.75076ZM17.2428 22.3465C17.2428 22.5167 17.1698 22.6626 17.0482 22.7842C16.9267 22.9058 16.7808 22.9787 16.6105 22.9787H1.82635C1.65613 22.9787 1.51024 22.9058 1.38866 22.8085C1.26708 22.6869 1.21844 22.541 1.21844 22.3708V1.62918C1.21844 1.45897 1.29139 1.31307 1.41297 1.19149L1.43729 1.16717C1.55887 1.06991 1.70477 0.99696 1.85066 0.99696H12.7443V3.74468C12.7443 4.231 12.9388 4.66869 13.2792 5.00912C13.5953 5.32523 14.0574 5.54407 14.5437 5.54407H17.2428V22.3465Z" fill="#BDBDBD"/>
<path d="M12.0406 14.2248L10.3385 14.1761C10.0467 14.1761 9.80355 14.395 9.80355 14.6868C9.80355 14.9786 10.0224 15.2217 10.3142 15.2217H10.3628C9.99807 15.3433 9.60902 15.3919 9.21996 15.3919C8.32026 15.3919 7.42057 15.0515 6.73972 14.3707C6.39929 14.0302 6.15613 13.6412 5.9616 13.2278C5.79139 12.7901 5.69413 12.3524 5.69413 11.8661C5.69413 11.5743 5.45097 11.3555 5.18349 11.3555C4.8917 11.3555 4.67285 11.5986 4.67285 11.8661C4.67285 12.474 4.79443 13.0576 5.01328 13.6169C5.23212 14.1761 5.57255 14.6868 6.01024 15.1001C6.90993 15.9998 8.0771 16.4375 9.24428 16.4375C10.0467 16.4375 10.8735 16.2187 11.5786 15.8053V16.4862C11.5786 16.7779 11.8218 16.9968 12.0893 16.9968C12.3567 16.9968 12.5999 16.7536 12.5999 16.4862V14.784C12.6242 14.6381 12.5513 14.4922 12.454 14.3707C12.3324 14.2734 12.1865 14.2004 12.0406 14.2248Z" fill="#BDBDBD"/>
<path d="M12.4498 8.8756C11.5501 7.97591 10.383 7.53821 9.2158 7.53821C8.41337 7.53821 7.58662 7.75706 6.88146 8.17043V7.48958C6.88146 7.19779 6.6383 6.97894 6.37082 6.97894C6.07903 6.97894 5.86018 7.2221 5.86018 7.48958V9.19171C5.83587 9.33761 5.90881 9.48351 6.00608 9.60509C6.10334 9.70235 6.24924 9.7753 6.39514 9.75099L8.09726 9.79962C8.38905 9.79962 8.63221 9.58077 8.63221 9.28898C8.63221 8.99718 8.41337 8.75402 8.12158 8.75402H8.07294C8.43768 8.63244 8.85106 8.55949 9.24012 8.55949C10.1398 8.55949 11.0395 8.89992 11.7204 9.58077C12.0608 9.9212 12.3039 10.3103 12.4985 10.7236C12.6687 11.1613 12.7659 11.599 12.7659 12.0853C12.7659 12.3771 13.0091 12.596 13.2766 12.596C13.5684 12.596 13.7872 12.3528 13.7872 12.0853C13.7872 11.4774 13.6656 10.8938 13.4468 10.3346C13.2036 9.79962 12.8875 9.28898 12.4498 8.8756Z" fill="#BDBDBD"/>
</svg>
